<svg xmlns="http://www.w3.org/2000/svg" xmlns:xlink="http://www.w3.org/1999/xlink" width="536pt" height="152pt" viewBox="0 0 536 152"><g id="graph1" class="graph" transform="scale(1 1) rotate(0) translate(4 148)"><title>_anonymous_0</title><polygon fill="#fff" stroke="#fff" points="-4 5 -4 -148 533 -148 533 5 -4 5"/><g id="node1" class="node"><title>file</title><text x="27" y="-67.8" font-family="monospace" font-size="14" text-anchor="middle">file</text></g><g id="node10" class="node"><title>Dis</title><ellipse cx="117" cy="-72" fill="none" stroke="#000" rx="27" ry="18"/><text x="117" y="-67.8" font-family="Arial Black" font-size="14" text-anchor="middle">Dis</text></g><g id="edge2" class="edge"><title>file-&gt;Dis</title><path fill="none" stroke="#000" d="M54.4029,-72C62.3932,-72 71.3106,-72 79.8241,-72"/><polygon fill="#000" stroke="#000" points="79.919 -75.5 89.919 -72 79.919 -68.5 79.919 -75.5"/></g><g id="node2" class="node"><title>ASM</title><text x="207" y="-94.8" font-family="monospace" font-size="14" text-anchor="middle">ASM</text></g><g id="node3" class="node"><title>Json</title><text x="207" y="-40.8" font-family="monospace" font-size="14" text-anchor="middle">Json</text></g><g id="node14" class="node"><title>DatPy</title><ellipse cx="308" cy="-72" fill="none" stroke="#000" rx="37.158" ry="18"/><text x="308" y="-67.8" font-family="Arial Black" font-size="14" text-anchor="middle">DatPy</text></g><g id="edge8" class="edge"><title>Json-&gt;DatPy</title><path fill="none" stroke="#000" d="M234.011,-52.0939C243.562,-54.6988 254.632,-57.7179 265.219,-60.6053"/><polygon fill="#000" stroke="#000" points="264.588 -64.061 275.156 -63.315 266.43 -57.307 264.588 -64.061"/></g><g id="node16" class="node"><title>DatJS</title><ellipse cx="308" cy="-18" fill="none" stroke="#000" rx="37.158" ry="18"/><text x="308" y="-13.8" font-family="Arial Black" font-size="14" text-anchor="middle">DatJS</text></g><g id="edge12" class="edge"><title>Json-&gt;DatJS</title><path fill="none" stroke="#000" d="M234.011,-37.9061C243.562,-35.3012 254.632,-32.2821 265.219,-29.3947"/><polygon fill="#000" stroke="#000" points="266.43 -32.693 275.156 -26.685 264.588 -25.939 266.43 -32.693"/></g><g id="node4" class="node"><title>PDF</title><text x="500" y="-13.8" font-family="monospace" font-size="14" text-anchor="middle">PDF</text></g><g id="node5" class="node"><title>HTML</title><text x="500" y="-121.8" font-family="monospace" font-size="14" text-anchor="middle">HTML</text></g><g id="node6" class="node"><title>SVG</title><text x="409" y="-13.8" font-family="monospace" font-size="14" text-anchor="middle">SVG</text></g><g id="edge14" class="edge"><title>SVG-&gt;PDF</title><path fill="none" stroke="#000" d="M436.222,-18C444.551,-18 453.914,-18 462.816,-18"/><polygon fill="#000" stroke="#000" points="462.966 -21.5 472.966 -18 462.966 -14.5 462.966 -21.5"/></g><g id="node7" class="node"><title>RTF</title><text x="500" y="-67.8" font-family="monospace" font-size="14" text-anchor="middle">RTF</text></g><g id="node8" class="node"><title>ANSI</title><text x="409" y="-67.8" font-family="monospace" font-size="14" text-anchor="middle">ANSI</text></g><g id="edge10" class="edge"><title>ANSI-&gt;HTML</title><path fill="none" stroke="#000" d="M436.222,-87.9097C444.682,-93.043 454.209,-98.8236 463.237,-104.301"/><polygon fill="#000" stroke="#000" points="461.675 -107.447 472.04 -109.643 465.307 -101.463 461.675 -107.447"/></g><g id="edge16" class="edge"><title>ANSI-&gt;RTF</title><path fill="none" stroke="#000" d="M436.222,-72C444.551,-72 453.914,-72 462.816,-72"/><polygon fill="#000" stroke="#000" points="462.966 -75.5 472.966 -72 462.966 -68.5 462.966 -75.5"/></g><g id="edge4" class="edge"><title>Dis-&gt;ASM</title><path fill="none" stroke="#000" d="M142.046,-79.3779C150.733,-82.0432 160.737,-85.1124 170.213,-88.0199"/><polygon fill="#000" stroke="#000" points="169.234 -91.38 179.82 -90.968 171.287 -84.688 169.234 -91.38"/></g><g id="edge6" class="edge"><title>Dis-&gt;Json</title><path fill="none" stroke="#000" d="M142.046,-64.6221C150.733,-61.9568 160.737,-58.8876 170.213,-55.9801"/><polygon fill="#000" stroke="#000" points="171.287 -59.312 179.82 -53.032 169.234 -52.62 171.287 -59.312"/></g><g id="edge9" class="edge"><title>DatPy-&gt;ANSI</title><path fill="none" stroke="#000" d="M345.583,-72C354.119,-72 363.207,-72 371.73,-72"/><polygon fill="#000" stroke="#000" points="371.771 -75.5 381.771 -72 371.771 -68.5 371.771 -75.5"/></g><g id="edge13" class="edge"><title>DatJS-&gt;SVG</title><path fill="none" stroke="#000" d="M345.583,-18C354.119,-18 363.207,-18 371.73,-18"/><polygon fill="#000" stroke="#000" points="371.771 -21.5 381.771 -18 371.771 -14.5 371.771 -21.5"/></g></g></svg>